<!DOCTYPE svg PUBLIC "-//W3C//DTD SVG 1.1//EN" "http://www.w3.org/Graphics/SVG/1.1/DTD/svg11.dtd">
<!-- Uploaded to: SVG Repo, www.svgrepo.com, Transformed by: SVG Repo Mixer Tools -->
<svg fill="#008b43" width="800px" height="800px" viewBox="0 0 1024 1024" xmlns="http://www.w3.org/2000/svg">
<g id="SVGRepo_bgCarrier" stroke-width="0"/>
<g id="SVGRepo_iconCarrier">
<path d="M576.477 448.471l349.649.621c35.346.041 63.967 28.728 63.926 64.074s-28.728 63.967-64.074 63.926l-349.429-.621.194 349.647c.013 35.346-28.63 64.01-63.977 64.023s-64.01-28.63-64.023-63.977l-.195-349.921-349.622-.621C63.58 575.581 34.959 546.894 35 511.548s28.728-63.967 64.074-63.926l349.402.621-.194-349.361c-.013-35.346 28.63-64.01 63.977-64.023s64.01 28.63 64.023 63.977l.194 349.635z"/>
</g>
</svg>